<svg xmlns="http://www.w3.org/2000/svg" style="background: transparent; background-color: transparent; color-scheme: light dark;" xmlns:xlink="http://www.w3.org/1999/xlink" version="1.1" width="587px" height="330px" viewBox="0 0 587 330"><defs/><g><g data-cell-id="0"><g data-cell-id="1"><g data-cell-id="13"><g><rect x="1" y="51.5" width="49.55" height="40" fill="none" stroke="none" pointer-events="all"/><path d="M 39.82 74.18 L 36.35 79.22 L 6.05 79.22 L 11.09 74.18 Z" fill="#000000" stroke="#ffffff" stroke-width="2" stroke-linejoin="round" stroke-miterlimit="10" pointer-events="all" style="fill: light-dark(rgb(0, 0, 0), rgb(237, 237, 237)); stroke: light-dark(rgb(255, 255, 255), rgb(18, 18, 18));"/><path d="M 6.05 84.57 L 6.05 79.22 L 35.09 79.22 L 35.09 84.57 Z M 6.05 56.22 L 34.77 56.22 L 34.77 77.96 L 6.05 77.96 Z M 34.77 77.96 L 39.82 73.23 L 39.82 51.5 L 34.77 56.22 Z M 45.82 89.3 L 48.02 84.89 L 42.97 84.89 L 40.77 89.3 Z M 40.77 89.3 L 45.82 89.3 L 45.82 90.88 L 40.77 90.88 Z M 45.82 90.88 L 45.82 89.3 L 48.02 84.89 L 48.02 88.04 Z M 35.09 84.57 L 35.09 79.22 L 39.82 74.49 L 39.82 79.85 Z" fill="#036897" stroke="#ffffff" stroke-width="2" stroke-linejoin="round" stroke-miterlimit="10" pointer-events="all" style="fill: light-dark(rgb(3, 104, 151), rgb(92, 179, 220)); stroke: light-dark(rgb(255, 255, 255), rgb(18, 18, 18));"/><path d="M 10.78 58.75 C 30.03 58.75 30.03 58.75 30.03 58.75 C 31.3 58.75 32.25 59.69 32.25 60.95 C 32.25 73.23 32.25 73.23 32.25 73.23 C 32.25 74.49 31.3 75.44 30.03 75.44 C 10.78 75.44 10.78 75.44 10.78 75.44 C 9.52 75.44 8.58 74.49 8.58 73.23 C 8.58 60.95 8.58 60.95 8.58 60.95 C 8.58 59.69 9.52 58.75 10.78 58.75 Z" fill="none" stroke="#ffffff" stroke-width="2" stroke-linejoin="round" stroke-miterlimit="10" pointer-events="all" style="stroke: light-dark(rgb(255, 255, 255), rgb(18, 18, 18));"/><path d="M 39.82 51.5 L 11.73 51.5 L 6.05 56.22 L 34.77 56.22 L 39.82 51.5 Z" fill="#036897" stroke="#ffffff" stroke-width="2" stroke-linejoin="round" stroke-miterlimit="10" pointer-events="all" style="fill: light-dark(rgb(3, 104, 151), rgb(92, 179, 220)); stroke: light-dark(rgb(255, 255, 255), rgb(18, 18, 18));"/><path d="M 34.14 91.5 L 34.14 89.93 L 37.93 84.57 L 37.93 87.72 L 34.14 91.5 Z" fill="#036897" stroke="#ffffff" stroke-width="2" stroke-linejoin="round" stroke-miterlimit="10" pointer-events="all" style="fill: light-dark(rgb(3, 104, 151), rgb(92, 179, 220)); stroke: light-dark(rgb(255, 255, 255), rgb(18, 18, 18));"/><path d="M 34.14 89.93 L 1 89.93 L 4.79 84.57 L 37.93 84.57 L 34.14 89.93 Z" fill="#036897" stroke="#ffffff" stroke-width="2" stroke-linejoin="round" stroke-miterlimit="10" pointer-events="all" style="fill: light-dark(rgb(3, 104, 151), rgb(92, 179, 220)); stroke: light-dark(rgb(255, 255, 255), rgb(18, 18, 18));"/><path d="M 34.14 89.93 L 34.14 91.5 L 1 91.5 L 1 89.93 L 34.14 89.93 Z" fill="#036897" stroke="#ffffff" stroke-width="2" stroke-linejoin="round" stroke-miterlimit="10" pointer-events="all" style="fill: light-dark(rgb(3, 104, 151), rgb(92, 179, 220)); stroke: light-dark(rgb(255, 255, 255), rgb(18, 18, 18));"/><path d="M 46.76 85.21 C 50.55 83.32 47.4 75.12 39.5 79.22" fill="none" stroke="#126d99" stroke-width="2" stroke-linejoin="round" stroke-miterlimit="10" pointer-events="all" style="stroke: light-dark(rgb(18, 109, 153), rgb(92, 171, 208));"/><path d="M 20.25 70.4 C 24.35 70.4 27.82 68.82 27.82 67.25 C 27.82 65.36 24.35 63.78 20.25 63.78 C 16.15 63.78 12.99 65.36 12.99 67.25 C 12.99 68.82 16.15 70.4 20.25 70.4 Z" fill="none" stroke="#ffffff" stroke-width="2" stroke-linejoin="round" stroke-miterlimit="10" pointer-events="all" style="stroke: light-dark(rgb(255, 255, 255), rgb(18, 18, 18));"/><path d="M 20.25 71.66 C 25.62 71.66 29.72 69.45 29.72 66.93 C 29.72 64.42 25.62 62.53 20.25 62.53 C 15.2 62.53 10.78 64.42 10.78 66.93 C 10.78 69.45 15.2 71.66 20.25 71.66 Z" fill="none" stroke="#ffffff" stroke-width="2" stroke-linejoin="round" stroke-miterlimit="10" pointer-events="all" style="stroke: light-dark(rgb(255, 255, 255), rgb(18, 18, 18));"/></g></g><g data-cell-id="14"><g><rect x="308.85" y="120.5" width="44.15" height="30" fill="none" stroke="none" pointer-events="all"/><path d="M 353 129.28 C 353 133.83 343.09 137.77 331.08 137.77 C 318.76 137.77 308.85 133.83 308.85 129.28 C 308.85 141.71 308.85 141.71 308.85 141.71 C 308.85 146.55 318.76 150.5 331.08 150.5 C 343.09 150.5 353 146.55 353 141.71 Z M 331.08 137.77 C 343.09 137.77 353 133.83 353 129.28 C 353 124.44 343.09 120.5 331.08 120.5 C 318.76 120.5 308.85 124.44 308.85 129.28 C 308.85 133.83 318.76 137.77 331.08 137.77 Z" fill="#036897" stroke="#ffffff" stroke-width="2" stroke-linejoin="round" stroke-miterlimit="10" pointer-events="all" style="fill: light-dark(rgb(3, 104, 151), rgb(92, 179, 220)); stroke: light-dark(rgb(255, 255, 255), rgb(18, 18, 18));"/><path d="M 325.97 125.65 L 327.77 128.37 L 320.86 130.19 L 322.37 128.98 L 311.55 127.16 L 314.26 125.05 L 324.77 126.86 Z M 335.58 132.32 L 334.38 129.59 L 340.68 128.37 L 339.48 129.28 L 350 131.1 L 347.3 133.23 L 337.08 131.1 Z M 332.28 124.14 L 339.19 122.32 L 339.19 125.35 L 337.39 125.05 L 334.08 127.77 L 330.77 127.46 L 334.38 124.74 Z M 329.28 135.05 L 322.66 136.25 L 322.37 133.23 L 324.17 133.53 L 327.77 130.5 L 331.08 131.1 L 327.17 134.44 Z" fill="#ffffff" stroke="none" pointer-events="all" style="fill: light-dark(rgb(255, 255, 255), rgb(18, 18, 18));"/><path d="M 340.99 144.14 C 340.99 146.86 336.78 149.28 331.38 149.28 C 325.97 149.28 321.76 146.86 321.76 144.14 C 321.76 141.41 325.97 139.28 331.38 139.28 C 336.78 139.28 340.99 141.41 340.99 144.14 Z" fill="#ffffff" stroke="none" pointer-events="all" style="fill: light-dark(rgb(255, 255, 255), rgb(18, 18, 18));"/><rect x="308.85" y="120.5" width="0" height="0" fill="none" stroke="#ffffff" stroke-width="2" pointer-events="all" style="stroke: light-dark(rgb(255, 255, 255), rgb(18, 18, 18));"/><path d="M 325.37 145.05 L 328.38 142.01 L 326.87 140.5 L 331.38 140.19 L 331.08 144.74 L 329.57 143.23 L 326.57 146.25 Z" fill="#036897" stroke="none" pointer-events="all" style="fill: light-dark(rgb(3, 104, 151), rgb(92, 179, 220));"/><path d="M 330.77 147.46 L 333.78 144.44 L 332.28 142.92 L 336.78 142.62 L 336.48 147.16 L 334.98 145.65 L 331.98 148.68 Z" fill="#036897" stroke="none" pointer-events="all" style="fill: light-dark(rgb(3, 104, 151), rgb(92, 179, 220));"/></g></g><g data-cell-id="15"><g><rect x="541" y="120.5" width="44.15" height="30" fill="none" stroke="none" pointer-events="all"/><path d="M 585.15 129.28 C 585.15 133.83 575.24 137.77 563.23 137.77 C 550.91 137.77 541 133.83 541 129.28 C 541 141.71 541 141.71 541 141.71 C 541 146.55 550.91 150.5 563.23 150.5 C 575.24 150.5 585.15 146.55 585.15 141.71 Z M 563.23 137.77 C 575.24 137.77 585.15 133.83 585.15 129.28 C 585.15 124.44 575.24 120.5 563.23 120.5 C 550.91 120.5 541 124.44 541 129.28 C 541 133.83 550.91 137.77 563.23 137.77 Z" fill="#036897" stroke="#ffffff" stroke-width="2" stroke-linejoin="round" stroke-miterlimit="10" pointer-events="all" style="fill: light-dark(rgb(3, 104, 151), rgb(92, 179, 220)); stroke: light-dark(rgb(255, 255, 255), rgb(18, 18, 18));"/><path d="M 558.12 125.65 L 559.92 128.37 L 553.01 130.19 L 554.52 128.98 L 543.7 127.16 L 546.41 125.05 L 556.92 126.86 Z M 567.73 132.32 L 566.53 129.59 L 572.83 128.37 L 571.63 129.28 L 582.15 131.1 L 579.45 133.23 L 569.23 131.1 Z M 564.43 124.14 L 571.34 122.32 L 571.34 125.35 L 569.54 125.05 L 566.23 127.77 L 562.92 127.46 L 566.53 124.74 Z M 561.43 135.05 L 554.81 136.25 L 554.52 133.23 L 556.32 133.53 L 559.92 130.5 L 563.23 131.1 L 559.32 134.44 Z" fill="#ffffff" stroke="none" pointer-events="all" style="fill: light-dark(rgb(255, 255, 255), rgb(18, 18, 18));"/><path d="M 573.14 144.14 C 573.14 146.86 568.93 149.28 563.53 149.28 C 558.12 149.28 553.91 146.86 553.91 144.14 C 553.91 141.41 558.12 139.28 563.53 139.28 C 568.93 139.28 573.14 141.41 573.14 144.14 Z" fill="#ffffff" stroke="none" pointer-events="all" style="fill: light-dark(rgb(255, 255, 255), rgb(18, 18, 18));"/><rect x="541" y="120.5" width="0" height="0" fill="none" stroke="#ffffff" stroke-width="2" pointer-events="all" style="stroke: light-dark(rgb(255, 255, 255), rgb(18, 18, 18));"/><path d="M 557.52 145.05 L 560.53 142.01 L 559.02 140.5 L 563.53 140.19 L 563.23 144.74 L 561.72 143.23 L 558.72 146.25 Z" fill="#036897" stroke="none" pointer-events="all" style="fill: light-dark(rgb(3, 104, 151), rgb(92, 179, 220));"/><path d="M 562.92 147.46 L 565.93 144.44 L 564.43 142.92 L 568.93 142.62 L 568.63 147.16 L 567.13 145.65 L 564.13 148.68 Z" fill="#036897" stroke="none" pointer-events="all" style="fill: light-dark(rgb(3, 104, 151), rgb(92, 179, 220));"/></g></g><g data-cell-id="17"><g><rect x="1" y="120.5" width="49.55" height="40" fill="none" stroke="none" pointer-events="all"/><path d="M 39.82 143.18 L 36.35 148.22 L 6.05 148.22 L 11.09 143.18 Z" fill="#000000" stroke="#ffffff" stroke-width="2" stroke-linejoin="round" stroke-miterlimit="10" pointer-events="all" style="fill: light-dark(rgb(0, 0, 0), rgb(237, 237, 237)); stroke: light-dark(rgb(255, 255, 255), rgb(18, 18, 18));"/><path d="M 6.05 153.57 L 6.05 148.22 L 35.09 148.22 L 35.09 153.57 Z M 6.05 125.22 L 34.77 125.22 L 34.77 146.96 L 6.05 146.96 Z M 34.77 146.96 L 39.82 142.23 L 39.82 120.5 L 34.77 125.22 Z M 45.82 158.3 L 48.02 153.89 L 42.97 153.89 L 40.77 158.3 Z M 40.77 158.3 L 45.82 158.3 L 45.82 159.88 L 40.77 159.88 Z M 45.82 159.88 L 45.82 158.3 L 48.02 153.89 L 48.02 157.04 Z M 35.09 153.57 L 35.09 148.22 L 39.82 143.49 L 39.82 148.85 Z" fill="#036897" stroke="#ffffff" stroke-width="2" stroke-linejoin="round" stroke-miterlimit="10" pointer-events="all" style="fill: light-dark(rgb(3, 104, 151), rgb(92, 179, 220)); stroke: light-dark(rgb(255, 255, 255), rgb(18, 18, 18));"/><path d="M 10.78 127.75 C 30.03 127.75 30.03 127.75 30.03 127.75 C 31.3 127.75 32.25 128.69 32.25 129.95 C 32.25 142.23 32.25 142.23 32.25 142.23 C 32.25 143.49 31.3 144.44 30.03 144.44 C 10.78 144.44 10.78 144.44 10.78 144.44 C 9.52 144.44 8.58 143.49 8.58 142.23 C 8.58 129.95 8.58 129.95 8.58 129.95 C 8.58 128.69 9.52 127.75 10.78 127.75 Z" fill="none" stroke="#ffffff" stroke-width="2" stroke-linejoin="round" stroke-miterlimit="10" pointer-events="all" style="stroke: light-dark(rgb(255, 255, 255), rgb(18, 18, 18));"/><path d="M 39.82 120.5 L 11.73 120.5 L 6.05 125.22 L 34.77 125.22 L 39.82 120.5 Z" fill="#036897" stroke="#ffffff" stroke-width="2" stroke-linejoin="round" stroke-miterlimit="10" pointer-events="all" style="fill: light-dark(rgb(3, 104, 151), rgb(92, 179, 220)); stroke: light-dark(rgb(255, 255, 255), rgb(18, 18, 18));"/><path d="M 34.14 160.5 L 34.14 158.93 L 37.93 153.57 L 37.93 156.72 L 34.14 160.5 Z" fill="#036897" stroke="#ffffff" stroke-width="2" stroke-linejoin="round" stroke-miterlimit="10" pointer-events="all" style="fill: light-dark(rgb(3, 104, 151), rgb(92, 179, 220)); stroke: light-dark(rgb(255, 255, 255), rgb(18, 18, 18));"/><path d="M 34.14 158.93 L 1 158.93 L 4.79 153.57 L 37.93 153.57 L 34.14 158.93 Z" fill="#036897" stroke="#ffffff" stroke-width="2" stroke-linejoin="round" stroke-miterlimit="10" pointer-events="all" style="fill: light-dark(rgb(3, 104, 151), rgb(92, 179, 220)); stroke: light-dark(rgb(255, 255, 255), rgb(18, 18, 18));"/><path d="M 34.14 158.93 L 34.14 160.5 L 1 160.5 L 1 158.93 L 34.14 158.93 Z" fill="#036897" stroke="#ffffff" stroke-width="2" stroke-linejoin="round" stroke-miterlimit="10" pointer-events="all" style="fill: light-dark(rgb(3, 104, 151), rgb(92, 179, 220)); stroke: light-dark(rgb(255, 255, 255), rgb(18, 18, 18));"/><path d="M 46.76 154.21 C 50.55 152.32 47.4 144.12 39.5 148.22" fill="none" stroke="#126d99" stroke-width="2" stroke-linejoin="round" stroke-miterlimit="10" pointer-events="all" style="stroke: light-dark(rgb(18, 109, 153), rgb(92, 171, 208));"/><path d="M 20.25 139.4 C 24.35 139.4 27.82 137.82 27.82 136.25 C 27.82 134.36 24.35 132.78 20.25 132.78 C 16.15 132.78 12.99 134.36 12.99 136.25 C 12.99 137.82 16.15 139.4 20.25 139.4 Z" fill="none" stroke="#ffffff" stroke-width="2" stroke-linejoin="round" stroke-miterlimit="10" pointer-events="all" style="stroke: light-dark(rgb(255, 255, 255), rgb(18, 18, 18));"/><path d="M 20.25 140.66 C 25.62 140.66 29.72 138.45 29.72 135.93 C 29.72 133.42 25.62 131.53 20.25 131.53 C 15.2 131.53 10.78 133.42 10.78 135.93 C 10.78 138.45 15.2 140.66 20.25 140.66 Z" fill="none" stroke="#ffffff" stroke-width="2" stroke-linejoin="round" stroke-miterlimit="10" pointer-events="all" style="stroke: light-dark(rgb(255, 255, 255), rgb(18, 18, 18));"/></g></g><g data-cell-id="18"><g><rect x="1" y="180.5" width="49.55" height="40" fill="none" stroke="none" pointer-events="all"/><path d="M 39.82 203.18 L 36.35 208.22 L 6.05 208.22 L 11.09 203.18 Z" fill="#000000" stroke="#ffffff" stroke-width="2" stroke-linejoin="round" stroke-miterlimit="10" pointer-events="all" style="fill: light-dark(rgb(0, 0, 0), rgb(237, 237, 237)); stroke: light-dark(rgb(255, 255, 255), rgb(18, 18, 18));"/><path d="M 6.05 213.57 L 6.05 208.22 L 35.09 208.22 L 35.09 213.57 Z M 6.05 185.22 L 34.77 185.22 L 34.77 206.96 L 6.05 206.96 Z M 34.77 206.96 L 39.82 202.23 L 39.82 180.5 L 34.77 185.22 Z M 45.82 218.3 L 48.02 213.89 L 42.97 213.89 L 40.77 218.3 Z M 40.77 218.3 L 45.82 218.3 L 45.82 219.88 L 40.77 219.88 Z M 45.82 219.88 L 45.82 218.3 L 48.02 213.89 L 48.02 217.04 Z M 35.09 213.57 L 35.09 208.22 L 39.82 203.49 L 39.82 208.85 Z" fill="#036897" stroke="#ffffff" stroke-width="2" stroke-linejoin="round" stroke-miterlimit="10" pointer-events="all" style="fill: light-dark(rgb(3, 104, 151), rgb(92, 179, 220)); stroke: light-dark(rgb(255, 255, 255), rgb(18, 18, 18));"/><path d="M 10.78 187.75 C 30.03 187.75 30.03 187.75 30.03 187.75 C 31.3 187.75 32.25 188.69 32.25 189.95 C 32.25 202.23 32.25 202.23 32.25 202.23 C 32.25 203.49 31.3 204.44 30.03 204.44 C 10.78 204.44 10.78 204.44 10.78 204.44 C 9.52 204.44 8.58 203.49 8.58 202.23 C 8.58 189.95 8.58 189.95 8.58 189.95 C 8.58 188.69 9.52 187.75 10.78 187.75 Z" fill="none" stroke="#ffffff" stroke-width="2" stroke-linejoin="round" stroke-miterlimit="10" pointer-events="all" style="stroke: light-dark(rgb(255, 255, 255), rgb(18, 18, 18));"/><path d="M 39.82 180.5 L 11.73 180.5 L 6.05 185.22 L 34.77 185.22 L 39.82 180.5 Z" fill="#036897" stroke="#ffffff" stroke-width="2" stroke-linejoin="round" stroke-miterlimit="10" pointer-events="all" style="fill: light-dark(rgb(3, 104, 151), rgb(92, 179, 220)); stroke: light-dark(rgb(255, 255, 255), rgb(18, 18, 18));"/><path d="M 34.14 220.5 L 34.14 218.93 L 37.93 213.57 L 37.93 216.72 L 34.14 220.5 Z" fill="#036897" stroke="#ffffff" stroke-width="2" stroke-linejoin="round" stroke-miterlimit="10" pointer-events="all" style="fill: light-dark(rgb(3, 104, 151), rgb(92, 179, 220)); stroke: light-dark(rgb(255, 255, 255), rgb(18, 18, 18));"/><path d="M 34.14 218.93 L 1 218.93 L 4.79 213.57 L 37.93 213.57 L 34.14 218.93 Z" fill="#036897" stroke="#ffffff" stroke-width="2" stroke-linejoin="round" stroke-miterlimit="10" pointer-events="all" style="fill: light-dark(rgb(3, 104, 151), rgb(92, 179, 220)); stroke: light-dark(rgb(255, 255, 255), rgb(18, 18, 18));"/><path d="M 34.14 218.93 L 34.14 220.5 L 1 220.5 L 1 218.93 L 34.14 218.93 Z" fill="#036897" stroke="#ffffff" stroke-width="2" stroke-linejoin="round" stroke-miterlimit="10" pointer-events="all" style="fill: light-dark(rgb(3, 104, 151), rgb(92, 179, 220)); stroke: light-dark(rgb(255, 255, 255), rgb(18, 18, 18));"/><path d="M 46.76 214.21 C 50.55 212.32 47.4 204.12 39.5 208.22" fill="none" stroke="#126d99" stroke-width="2" stroke-linejoin="round" stroke-miterlimit="10" pointer-events="all" style="stroke: light-dark(rgb(18, 109, 153), rgb(92, 171, 208));"/><path d="M 20.25 199.4 C 24.35 199.4 27.82 197.82 27.82 196.25 C 27.82 194.36 24.35 192.78 20.25 192.78 C 16.15 192.78 12.99 194.36 12.99 196.25 C 12.99 197.82 16.15 199.4 20.25 199.4 Z" fill="none" stroke="#ffffff" stroke-width="2" stroke-linejoin="round" stroke-miterlimit="10" pointer-events="all" style="stroke: light-dark(rgb(255, 255, 255), rgb(18, 18, 18));"/><path d="M 20.25 200.66 C 25.62 200.66 29.72 198.45 29.72 195.93 C 29.72 193.42 25.62 191.53 20.25 191.53 C 15.2 191.53 10.78 193.42 10.78 195.93 C 10.78 198.45 15.2 200.66 20.25 200.66 Z" fill="none" stroke="#ffffff" stroke-width="2" stroke-linejoin="round" stroke-miterlimit="10" pointer-events="all" style="stroke: light-dark(rgb(255, 255, 255), rgb(18, 18, 18));"/></g></g><g data-cell-id="36"><g transform="translate(0.5,0.5)"><path d="M 110.7 127.9 L 81 127.9 L 81 72 L 50.55 72" fill="none" stroke="#000000" stroke-miterlimit="10" pointer-events="stroke" style="stroke: light-dark(rgb(0, 0, 0), rgb(255, 255, 255));"/></g></g><g data-cell-id="19"><g><rect x="101" y="121" width="60.6" height="30" fill="none" stroke="none" pointer-events="all"/><path d="M 146.69 151 L 146.69 135.84 L 101 135.84 L 101 151 Z M 101 135.84 L 119.4 121 L 161.6 121 L 146.37 135.84 Z M 146.69 151 L 161.6 134.58 L 161.6 121 L 146.69 135.84 Z" fill="#036897" stroke="#ffffff" stroke-width="2" stroke-linejoin="round" stroke-miterlimit="10" pointer-events="all" style="fill: light-dark(rgb(3, 104, 151), rgb(92, 179, 220)); stroke: light-dark(rgb(255, 255, 255), rgb(18, 18, 18));"/><rect x="101" y="121" width="0" height="0" fill="none" stroke="#ffffff" stroke-width="2" pointer-events="all" style="stroke: light-dark(rgb(255, 255, 255), rgb(18, 18, 18));"/><path d="M 127.65 132.05 L 126.7 132.68 L 115.59 132.68 L 114.32 133.94 L 111.16 132.68 L 117.49 130.79 L 116.23 132.05 Z M 136.53 126.36 L 135.58 127.31 L 124.48 127.31 L 123.21 128.26 L 120.04 127 L 126.38 125.42 L 125.11 126.36 Z M 129.55 130.15 L 130.51 129.53 L 141.93 129.53 L 142.88 128.26 L 146.05 129.53 L 140.02 131.42 L 140.97 130.15 Z M 135.58 124.47 L 136.53 123.84 L 147.64 123.84 L 148.9 122.57 L 152.08 124.16 L 145.73 125.74 L 147 124.47 Z" fill="#ffffff" stroke="none" pointer-events="all" style="fill: light-dark(rgb(255, 255, 255), rgb(18, 18, 18));"/></g></g><g data-cell-id="21"><g><rect x="117.43" y="41" width="27.74" height="40" fill="none" stroke="none" pointer-events="all"/><path d="M 138.32 47.77 L 117.43 47.77 L 117.43 81 L 138.32 81 Z M 138.32 81 L 145.17 74.56 L 145.17 41 L 124.27 41 L 117.43 47.77 L 138.32 47.77 L 138.32 81 Z" fill="#036897" stroke="#ffffff" stroke-width="2" stroke-linejoin="round" stroke-miterlimit="10" pointer-events="all" style="fill: light-dark(rgb(3, 104, 151), rgb(92, 179, 220)); stroke: light-dark(rgb(255, 255, 255), rgb(18, 18, 18));"/><rect x="117.43" y="41" width="0" height="0" fill="none" stroke="#ffffff" stroke-width="2" pointer-events="all" style="stroke: light-dark(rgb(255, 255, 255), rgb(18, 18, 18));"/><path d="M 138.32 47.77 L 145.17 41 M 117.43 60.66 L 138.32 60.66 M 117.43 75.91 L 138.32 75.91 M 122.57 52.86 L 128.38 52.86 M 130.79 54.89 L 130.79 50.82 L 120.16 50.82 L 120.16 54.89 L 130.79 54.89 Z" fill="none" stroke="#ffffff" stroke-width="2" stroke-miterlimit="10" pointer-events="all" style="stroke: light-dark(rgb(255, 255, 255), rgb(18, 18, 18));"/></g></g><g data-cell-id="33"><g transform="translate(0.5,0.5)"><path d="M 221 136 L 161.6 136" fill="none" stroke="#000000" stroke-miterlimit="10" pointer-events="stroke" style="stroke: light-dark(rgb(0, 0, 0), rgb(255, 255, 255));"/></g></g><g data-cell-id="22"><g><rect x="221" y="116" width="27.74" height="40" fill="none" stroke="none" pointer-events="all"/><path d="M 241.89 122.77 L 221 122.77 L 221 156 L 241.89 156 Z M 241.89 156 L 248.74 149.56 L 248.74 116 L 227.84 116 L 221 122.77 L 241.89 122.77 L 241.89 156 Z" fill="#036897" stroke="#ffffff" stroke-width="2" stroke-linejoin="round" stroke-miterlimit="10" pointer-events="all" style="fill: light-dark(rgb(3, 104, 151), rgb(92, 179, 220)); stroke: light-dark(rgb(255, 255, 255), rgb(18, 18, 18));"/><rect x="221" y="116" width="0" height="0" fill="none" stroke="#ffffff" stroke-width="2" pointer-events="all" style="stroke: light-dark(rgb(255, 255, 255), rgb(18, 18, 18));"/><path d="M 241.89 122.77 L 248.74 116 M 221 135.66 L 241.89 135.66 M 221 150.91 L 241.89 150.91 M 226.14 127.86 L 231.95 127.86 M 234.36 129.89 L 234.36 125.82 L 223.73 125.82 L 223.73 129.89 L 234.36 129.89 Z" fill="none" stroke="#ffffff" stroke-width="2" stroke-miterlimit="10" pointer-events="all" style="stroke: light-dark(rgb(255, 255, 255), rgb(18, 18, 18));"/></g></g><g data-cell-id="23"><g transform="translate(0.5,0.5)"><rect x="101" y="156" width="60" height="30" fill="none" stroke="none" pointer-events="all"/></g><g><g><switch><foreignObject style="overflow: visible; text-align: left;" pointer-events="none" width="100%" height="100%" requiredFeatures="http://www.w3.org/TR/SVG11/feature#Extensibility"><div xmlns="http://www.w3.org/1999/xhtml" style="display: flex; align-items: unsafe center; justify-content: unsafe center; width: 58px; height: 1px; padding-top: 171px; margin-left: 102px;"><div style="box-sizing: border-box; font-size: 0; text-align: center; color: #000000; "><div style="display: inline-block; font-size: 12px; font-family: Helvetica; color: light-dark(#000000, #ffffff); line-height: 1.2; pointer-events: all; white-space: normal; word-wrap: normal; ">LAN<div>192.168.30.0/24</div></div></div></div></foreignObject><text x="131" y="175" fill="light-dark(#000000, #ffffff)" font-family="Helvetica" font-size="12px" text-anchor="middle">LAN...</text></switch></g></g></g><g data-cell-id="24"><g><rect x="231" y="1" width="77.85" height="40" fill="none" stroke="none" pointer-events="all"/><path d="M 259.55 7.2 C 246.84 5 239.93 10.8 241.04 16 C 241.04 16.2 241.04 16.2 241.04 16.2 C 231 17.8 233.68 28.4 238.59 28.4 C 239.03 28.4 239.03 28.4 239.03 28.4 C 237.69 33.4 249.52 38.4 255.99 35.8 C 256.43 35.4 256.43 35.4 256.43 35.4 C 258.66 40 267.13 40.6 275.16 40.8 C 282.3 41 286.32 40.6 289.44 37.8 C 289.89 37.8 289.89 37.8 289.89 37.8 C 301.26 38.6 306.39 31.6 303.94 26.6 C 304.61 26.4 304.61 26.4 304.61 26.4 C 308.4 25.6 308.85 17.6 302.16 16.4 C 302.38 16 302.38 16 302.38 16 C 305.28 10.8 298.36 6 289 6.8 C 288.33 6.6 288.33 6.6 288.33 6.6 C 281.64 1 262.23 2 260 7.4 Z" fill="#036897" stroke="#ffffff" stroke-width="2" stroke-miterlimit="10" pointer-events="all" style="fill: light-dark(rgb(3, 104, 151), rgb(92, 179, 220)); stroke: light-dark(rgb(255, 255, 255), rgb(18, 18, 18));"/></g></g><g data-cell-id="25"><g transform="translate(0.5,0.5)"><rect x="271" y="52" width="60" height="30" fill="none" stroke="none" pointer-events="all"/></g><g><g><switch><foreignObject style="overflow: visible; text-align: left;" pointer-events="none" width="100%" height="100%" requiredFeatures="http://www.w3.org/TR/SVG11/feature#Extensibility"><div xmlns="http://www.w3.org/1999/xhtml" style="display: flex; align-items: unsafe center; justify-content: unsafe center; width: 58px; height: 1px; padding-top: 67px; margin-left: 272px;"><div style="box-sizing: border-box; font-size: 0; text-align: center; color: #000000; "><div style="display: inline-block; font-size: 12px; font-family: Helvetica; color: light-dark(#000000, #ffffff); line-height: 1.2; pointer-events: all; white-space: normal; word-wrap: normal; ">WAN<br /><div>192.168.80.0/24</div></div></div></div></foreignObject><text x="301" y="71" fill="light-dark(#000000, #ffffff)" font-family="Helvetica" font-size="12px" text-anchor="middle">WAN...</text></switch></g></g></g><g data-cell-id="26"><g transform="translate(0.5,0.5)"><path d="M 269.92 40.6 L 237.55 110.23" fill="none" stroke="#000000" stroke-miterlimit="10" pointer-events="stroke" style="stroke: light-dark(rgb(0, 0, 0), rgb(255, 255, 255));"/><path d="M 235.34 114.99 L 235.12 107.16 L 237.55 110.23 L 241.47 110.11 Z" fill="#000000" stroke="#000000" stroke-miterlimit="10" pointer-events="all" style="fill: light-dark(rgb(0, 0, 0), rgb(255, 255, 255)); stroke: light-dark(rgb(0, 0, 0), rgb(255, 255, 255));"/></g></g><g data-cell-id="27"><g transform="translate(0.5,0.5)"><rect x="204.87" y="156" width="60" height="30" fill="none" stroke="none" pointer-events="all"/></g><g><g><switch><foreignObject style="overflow: visible; text-align: left;" pointer-events="none" width="100%" height="100%" requiredFeatures="http://www.w3.org/TR/SVG11/feature#Extensibility"><div xmlns="http://www.w3.org/1999/xhtml" style="display: flex; align-items: unsafe center; justify-content: unsafe center; width: 58px; height: 1px; padding-top: 171px; margin-left: 206px;"><div style="box-sizing: border-box; font-size: 0; text-align: center; color: #000000; "><div style="display: inline-block; font-size: 12px; font-family: Helvetica; color: light-dark(#000000, #ffffff); line-height: 1.2; pointer-events: all; white-space: normal; word-wrap: normal; ">WServer<br /><div>192.168.80.155/24</div></div></div></div></foreignObject><text x="235" y="175" fill="light-dark(#000000, #ffffff)" font-family="Helvetica" font-size="12px" text-anchor="middle">WServer...</text></switch></g></g></g><g data-cell-id="29"><g transform="translate(0.5,0.5)"><path d="M 239.59 193.12 L 243.12 189.59 L 341.1 287.56 L 342.51 286.15 L 350.65 300.65 L 336.15 292.51 L 337.56 291.1 Z" fill="#dae8fc" stroke="#6c8ebf" stroke-miterlimit="10" pointer-events="all" style="fill: light-dark(rgb(218, 232, 252), rgb(29, 41, 59)); stroke: light-dark(rgb(108, 142, 191), rgb(92, 121, 163));"/></g></g><g data-cell-id="30"><g><rect x="355" y="299" width="44.26" height="30" fill="none" stroke="none" pointer-events="all"/><path d="M 398.22 299 L 399.26 300.31 L 396.39 316.48 L 395.1 315.69 Z M 366.98 315.69 L 368.02 316.48 L 396.39 316.48 L 395.1 315.69 Z" fill="#036897" stroke="#ffffff" stroke-width="2" stroke-linejoin="round" stroke-miterlimit="10" pointer-events="all" style="fill: light-dark(rgb(3, 104, 151), rgb(92, 179, 220)); stroke: light-dark(rgb(255, 255, 255), rgb(18, 18, 18));"/><path d="M 395.35 317 C 395.35 319.61 395.35 319.61 395.35 319.61 C 394.57 320.39 394.57 320.39 394.57 320.39 C 394.57 320.39 392.75 320.91 393.27 321.96 C 385.46 329 385.46 329 385.46 329 C 385.46 325.87 385.46 325.87 385.46 325.87 Z" fill="#036897" stroke="#ffffff" stroke-width="2" stroke-linejoin="round" stroke-miterlimit="10" pointer-events="all" style="fill: light-dark(rgb(3, 104, 151), rgb(92, 179, 220)); stroke: light-dark(rgb(255, 255, 255), rgb(18, 18, 18));"/><path d="M 355 325.87 L 355 329 L 385.46 329 L 385.46 325.87 Z" fill="#036897" stroke="#ffffff" stroke-width="2" stroke-linejoin="round" stroke-miterlimit="10" pointer-events="all" style="fill: light-dark(rgb(3, 104, 151), rgb(92, 179, 220)); stroke: light-dark(rgb(255, 255, 255), rgb(18, 18, 18));"/><path d="M 367.24 317 L 395.35 317 L 385.46 325.87 L 355 325.87 Z M 395.1 315.69 L 398.22 299 L 370.62 299 L 366.98 315.69 Z M 392.75 313.61 L 395.1 301.09 L 372.71 301.09 L 370.1 313.61 Z" fill="#036897" stroke="#ffffff" stroke-width="2" stroke-linejoin="round" stroke-miterlimit="10" pointer-events="all" style="fill: light-dark(rgb(3, 104, 151), rgb(92, 179, 220)); stroke: light-dark(rgb(255, 255, 255), rgb(18, 18, 18));"/><path d="M 367.76 317.26 L 360.73 323 M 370.1 317.26 L 363.08 323 M 372.45 317.26 L 365.42 323 M 374.79 317.26 L 367.5 323 M 376.87 317.26 L 369.84 323 M 379.21 317.26 L 372.18 323 M 381.55 317.26 L 374.53 323 M 383.9 317.26 L 376.61 323 M 385.98 317.26 L 378.95 323 M 388.33 317.26 L 381.3 323 M 390.67 317.26 L 383.64 323 M 393.01 317.26 L 385.73 323 M 361.51 322.48 L 386.76 322.48 M 363.33 321.17 L 388.07 321.17 M 364.9 319.87 L 389.89 319.87 M 366.46 318.57 L 391.45 318.57" fill="none" stroke="#ffffff" stroke-width="2" stroke-linejoin="round" stroke-miterlimit="10" pointer-events="all" style="stroke: light-dark(rgb(255, 255, 255), rgb(18, 18, 18));"/></g></g><g data-cell-id="31"><g transform="translate(0.5,0.5)"><path d="M 248.74 136 L 308.85 135.63" fill="none" stroke="#000000" stroke-miterlimit="10" pointer-events="stroke" style="stroke: light-dark(rgb(0, 0, 0), rgb(255, 255, 255));"/></g></g><g data-cell-id="39"><g transform="translate(0.5,0.5)"><path d="M 249.59 203.12 L 253.12 199.59 L 351.1 297.56 L 352.51 296.15 L 360.65 310.65 L 346.15 302.51 L 347.56 301.1 Z" fill="#dae8fc" stroke="#6c8ebf" stroke-miterlimit="10" pointer-events="all" style="fill: light-dark(rgb(218, 232, 252), rgb(29, 41, 59)); stroke: light-dark(rgb(108, 142, 191), rgb(92, 121, 163));"/></g></g><g data-cell-id="40"><g transform="translate(0.5,0.5)"><path d="M 366.5 138 L 366.5 140 L 353.5 135.5 L 366.5 131 L 366.5 133 L 524.5 133 L 524.5 131 L 540.5 135.5 L 524.5 140 L 524.5 138 Z" fill="#dae8fc" stroke="#6c8ebf" stroke-miterlimit="10" pointer-events="all" style="fill: light-dark(rgb(218, 232, 252), rgb(29, 41, 59)); stroke: light-dark(rgb(108, 142, 191), rgb(92, 121, 163));"/></g></g><g data-cell-id="16"><g><rect x="395" y="110.5" width="102" height="50" fill="none" stroke="none" pointer-events="all"/><path d="M 432.41 118.25 C 415.75 115.5 406.7 122.75 408.15 129.25 C 408.15 129.5 408.15 129.5 408.15 129.5 C 395 131.5 398.51 144.75 404.94 144.75 C 405.52 144.75 405.52 144.75 405.52 144.75 C 403.77 151 419.26 157.25 427.74 154 C 428.32 153.5 428.32 153.5 428.32 153.5 C 431.24 159.25 442.34 160 452.86 160.25 C 462.22 160.5 467.48 160 471.57 156.5 C 472.15 156.5 472.15 156.5 472.15 156.5 C 487.06 157.5 493.78 148.75 490.56 142.5 C 491.44 142.25 491.44 142.25 491.44 142.25 C 496.41 141.25 497 131.25 488.23 129.75 C 488.52 129.25 488.52 129.25 488.52 129.25 C 492.32 122.75 483.26 116.75 470.99 117.75 C 470.11 117.5 470.11 117.5 470.11 117.5 C 461.34 110.5 435.92 111.75 433 118.5 Z" fill="#036897" stroke="#ffffff" stroke-width="2" stroke-miterlimit="10" pointer-events="all" style="fill: light-dark(rgb(3, 104, 151), rgb(92, 179, 220)); stroke: light-dark(rgb(255, 255, 255), rgb(18, 18, 18));"/></g></g><g data-cell-id="41"><g transform="translate(0.5,0.5)"><rect x="416" y="160.5" width="75" height="30" fill="none" stroke="none" pointer-events="all"/></g><g><g><switch><foreignObject style="overflow: visible; text-align: left;" pointer-events="none" width="100%" height="100%" requiredFeatures="http://www.w3.org/TR/SVG11/feature#Extensibility"><div xmlns="http://www.w3.org/1999/xhtml" style="display: flex; align-items: unsafe center; justify-content: unsafe center; width: 73px; height: 1px; padding-top: 176px; margin-left: 417px;"><div style="box-sizing: border-box; font-size: 0; text-align: center; color: #000000; "><div style="display: inline-block; font-size: 12px; font-family: Helvetica; color: light-dark(#000000, #ffffff); line-height: 1.2; pointer-events: all; white-space: normal; word-wrap: normal; ">IPSec Tunnel</div></div></div></foreignObject><text x="454" y="179" fill="light-dark(#000000, #ffffff)" font-family="Helvetica" font-size="12px" text-anchor="middle">IPSec Tunnel</text></switch></g></g></g><g data-cell-id="28"><g><rect x="261" y="220.5" width="60.99" height="40" fill="none" stroke="none" transform="rotate(30,291.49,240.5)" pointer-events="all"/><path d="M 283.37 226.7 C 273.41 224.5 267.99 230.3 268.86 235.5 C 268.86 235.7 268.86 235.7 268.86 235.7 C 261 237.3 263.1 247.9 266.94 247.9 C 267.29 247.9 267.29 247.9 267.29 247.9 C 266.24 252.9 275.51 257.9 280.58 255.3 C 280.92 254.9 280.92 254.9 280.92 254.9 C 282.67 259.5 289.31 260.1 295.6 260.3 C 301.19 260.5 304.34 260.1 306.79 257.3 C 307.13 257.3 307.13 257.3 307.13 257.3 C 316.05 258.1 320.07 251.1 318.14 246.1 C 318.67 245.9 318.67 245.9 318.67 245.9 C 321.64 245.1 321.99 237.1 316.75 235.9 C 316.92 235.5 316.92 235.5 316.92 235.5 C 319.19 230.3 313.78 225.5 306.44 226.3 C 305.91 226.1 305.91 226.1 305.91 226.1 C 300.67 220.5 285.47 221.5 283.72 226.9 Z" fill="#036897" stroke="#ffffff" stroke-width="2" stroke-miterlimit="10" transform="rotate(30,291.49,240.5)" pointer-events="all" style="fill: light-dark(rgb(3, 104, 151), rgb(92, 179, 220)); stroke: light-dark(rgb(255, 255, 255), rgb(18, 18, 18));"/></g></g><g data-cell-id="42"><g transform="translate(0.5,0.5)"><rect x="301" y="211" width="75" height="30" fill="none" stroke="none" pointer-events="all"/></g><g><g><switch><foreignObject style="overflow: visible; text-align: left;" pointer-events="none" width="100%" height="100%" requiredFeatures="http://www.w3.org/TR/SVG11/feature#Extensibility"><div xmlns="http://www.w3.org/1999/xhtml" style="display: flex; align-items: unsafe center; justify-content: unsafe center; width: 73px; height: 1px; padding-top: 226px; margin-left: 302px;"><div style="box-sizing: border-box; font-size: 0; text-align: center; color: #000000; "><div style="display: inline-block; font-size: 12px; font-family: Helvetica; color: light-dark(#000000, #ffffff); line-height: 1.2; pointer-events: all; white-space: normal; word-wrap: normal; ">OpenVPN</div></div></div></foreignObject><text x="339" y="230" fill="light-dark(#000000, #ffffff)" font-family="Helvetica" font-size="12px" text-anchor="middle">OpenVPN</text></switch></g></g></g></g></g></g><switch><g requiredFeatures="http://www.w3.org/TR/SVG11/feature#Extensibility"/><a transform="translate(0,-5)" xlink:href="https://www.drawio.com/doc/faq/svg-export-text-problems" target="_blank"><text text-anchor="middle" font-size="10px" x="50%" y="100%">Text is not SVG - cannot display</text></a></switch></svg>