<svg xmlns="http://www.w3.org/2000/svg" style="background: transparent; background-color: transparent; color-scheme: light dark;" xmlns:xlink="http://www.w3.org/1999/xlink" version="1.1" width="90px" height="52px" viewBox="0 0 90 52"><defs/><g><g data-cell-id="0"><g data-cell-id="1"><g data-cell-id="2"><g transform="translate(0.5,0.5)"><rect x="0" y="0" width="27" height="52" fill="none" stroke="none" pointer-events="all"/><path d="M 5.25 8.92 L 21.75 8.92 L 21.75 6.69 L 5.25 6.69 Z M 5.25 39.38 L 21.75 39.38 L 21.75 37.14 L 5.25 37.14 Z M 0 52 L 0 2.93 C 0 1.51 1.22 0 2.98 0 L 24.05 0 C 25.65 0 27 1.38 27 2.95 L 27 52 Z M 5.25 46.06 L 21.75 46.06 L 21.75 43.83 L 5.25 43.83 Z" fill="#505050" stroke="none" pointer-events="all" style="fill: light-dark(rgb(80, 80, 80), rgb(168, 168, 168));"/></g></g><g data-cell-id="3"><g transform="translate(0.5,0.5)"><rect x="60" y="1" width="30" height="50" fill="none" stroke="none" pointer-events="all"/><path d="M 65.83 9.58 L 84.17 9.58 L 84.17 7.43 L 65.83 7.43 Z M 65.83 38.87 L 84.17 38.87 L 84.17 36.71 L 65.83 36.71 Z M 60 51 L 60 3.82 C 60 2.45 61.36 1 63.31 1 L 86.72 1 C 88.5 1 90 2.32 90 3.84 L 90 51 Z M 65.83 45.29 L 84.17 45.29 L 84.17 43.14 L 65.83 43.14 Z" fill="#505050" stroke="none" pointer-events="all" style="fill: light-dark(rgb(80, 80, 80), rgb(168, 168, 168));"/></g></g></g></g></g></svg>